<?xml version="1.0" encoding="UTF-8"?><svg id="Layer_1" xmlns="http://www.w3.org/2000/svg" viewBox="0 0 844.76 244.82"><defs><style>.cls-1{fill:#fff;}.cls-2{fill:#73000a;}</style></defs><g><rect class="cls-2" x="47.38" y="47.77" width="149.28" height="149.28"/><path class="cls-1" d="M155.28,133.03v-7.61s-8.36-10.21-20.05-10.21c-8.95,0-13.07,5.26-13.07,5.26,0,0-4.12-5.26-13.07-5.26-11.69,0-20.05,10.21-20.05,10.21v7.61s9.54-15.49,23.44-15.49c5.26,0,9.67,4.7,9.67,4.7,0,0,4.41-4.7,9.67-4.7,13.91,0,23.44,15.49,23.44,15.49Zm-27.58,11.52h.02l2.38-5.77h-2.38l2.38-5.77h-2.38l1.91-4.64c4.74,1.76,8.05,8.46,8.05,8.46v-5.56c-3.92-5.38-10.28-4.04-10.28-4.04l-2.38,5.77h2.38l-2.38,5.77h2.38l-2.38,5.77h-.06v20.48l3.96,6.34h2.89l-3.89-6.62h6.02v-1.43h-6.24v-18.77Zm-.14-21.78c14.09,0,18.39,13.43,18.39,13.43v-7.17c-4.61-5.94-9.02-7.12-12.94-7.17-3.11-.04-5.45,.91-5.45,.91Zm22.96,18.76l1.18-2.74h-15.4l1.18,2.74h13.04Zm21.71,13.09v2.6h-5.33v-6.24h-2.74v6.24h-5.33v-9.94h-2.74v9.94h-5.57v-13.81h-13.06v28.05h2.74v-25.31h7.58v25.31h2.74v-12.82h5.57v12.82h2.74v-12.82h5.33v12.82h2.74v-12.82h5.33v12.82h2.74v-16.84h-2.74Zm-50.07-55.63c0-1.65,6.94-15.82,19.07-19.25v-6.49c-9.1,2.32-19.07,17.66-19.07,23.72,0-6.07-9.97-21.41-19.07-23.72v6.49c12.13,3.43,19.07,17.59,19.07,19.25Zm0,6.99s8.17-16.68,29.63-16.68v-6.59c-20.29,0-29.63,20.7-29.63,20.7,0,0-9.34-20.7-29.63-20.7v6.59c21.46,0,29.63,16.68,29.63,16.68Zm-5.24,32.8h2.38l-2.38-5.77h2.38l-2.38-5.77s-6.36-1.34-10.28,4.04v5.56s3.31-6.71,8.05-8.46l1.91,4.64h-2.38l2.38,5.77h-2.38l2.38,5.77h.02v18.77h-6.24v1.43h6.02l-3.89,6.62h2.89l3.96-6.34v-20.48h-.06l-2.38-5.77Zm-17.85-37.78c13.48,0,23.09,11.22,23.09,11.22,0,0,9.61-11.22,23.09-11.22,7.66,0,12.83,3.33,12.83,3.33l.02-7.4s-5.53-1.73-10.12-1.73c-17.46,0-25.82,14.98-25.82,14.98,0,0-8.37-14.98-25.82-14.98-4.59,0-10.12,1.73-10.12,1.73l.02,7.4s5.17-3.33,12.83-3.33Zm23.09-11.23s.15-10.09,8.62-14.22c.05-3.3,.05-5.75,.05-5.75-8.38,4.23-8.67,15.34-8.67,15.34,0,0-.29-11.11-8.67-15.34,0,0,0,2.45,.05,5.75,8.47,4.13,8.62,14.22,8.62,14.22Zm-28.36,51.76h13.04l1.18-2.74h-15.4l1.18,2.74Zm17.52-19.68c-3.92,.05-8.33,1.23-12.94,7.17v7.17s4.31-13.43,18.39-13.43c0,0-2.34-.95-5.45-.91Zm-4.55-11.67c9.69-.03,15.4,7.06,15.4,7.06,0,0,5.71-7.09,15.4-7.06,14.01,.12,24.3,12.78,24.3,12.78v-9.19s-8.35-7.06-21.48-7.06c-11.88,0-18.22,8.72-18.22,8.72,0,0-6.35-8.72-18.22-8.72-13.12,0-21.48,7.06-21.48,7.06v9.19s10.28-12.66,24.3-12.78Zm-12.96,47.03h-5.57v-9.94h-2.74v9.94h-5.33v-6.24h-2.74v6.24h-5.33v-2.6h-2.74v16.84h2.74v-12.82h5.33v12.82h2.74v-12.82h5.33v12.82h2.74v-12.82h5.57v12.82h2.74v-25.31h7.58v25.31h2.74v-28.05h-13.06v13.81Z"/><g><path class="cls-2" d="M239.1,162.81c2.8,3.25,7.41,5.87,12.47,5.87,7.05,0,11.38-4.34,11.38-10.66,0-5.33-3.43-8.76-8.85-11.2l-10.93-5.06c-6.96-3.16-12.11-7.5-12.11-15.45,0-9.22,7.95-15.45,22.4-18.52,6.05,0,12.74,1.99,17.44,5.24v13.01h-5.33l-2.62-8.22c-2.35-2.53-5.42-4.61-10.66-4.61-6.87,0-10.84,3.7-10.84,9.03,0,4.52,3.16,7.41,7.86,9.58l11.02,4.97c8.4,3.98,13.46,8.49,13.37,16.98,0,9.31-6.87,16.71-23.67,20.51-7.86,0-13.91-2.44-18.97-6.14l-1.99-13.28h6.96l3.07,7.95Z"/><path class="cls-2" d="M321.66,149c0,14.09-9.31,22.58-23.04,25.01-11.83,0-20.24-10.38-20.24-22.94,0-14.27,9.31-22.58,23.04-25.11,11.83,0,20.24,10.38,20.24,23.03Zm-20.51,20.23c6.05,0,9.4-7.49,9.4-17.43,0-12.56-5.06-21.04-11.74-21.04-6.14,0-9.4,7.49-9.4,17.43,0,11.74,4.88,21.04,11.74,21.04Z"/><path class="cls-2" d="M366.14,160.73c0,3.7,.45,5.15,1.17,6.59h4.16l.36,3.61-13.01,2.44-2.62-7.59-12.92,8.22c-11.47,0-14.18-3.79-14.18-14.36v-26.27l-5.78,.45-.45-3.98,11.29-2.44,5.42-.36v32.41c0,4.34,1.81,6.32,5.96,6.32,2.44,0,5.51-1.81,8.49-3.79l1.72-1.17v-27.44l-5.06,.45-.45-3.98,10.48-2.44,5.42-.36v33.68Z"/><path class="cls-2" d="M418.47,168.14l4.52,.99-.45,3.61-9.03-.27-10.75,.27-.45-3.61,5.78-.99v-52.38l-5.87,.18-.45-3.61,11.74-2.71,4.97-.36v25.3l13.46-8.58c11.11,0,13.64,3.88,13.64,15.18v26.99l6.23,.99-.45,3.61-10.75-.27-9.12,.27-.45-3.61,4.07-.99v-27.9c0-4.25-1.99-6.14-5.33-6.14-2.62,0-5.78,1.9-8.85,3.79l-2.44,1.54v28.71Z"/><g><path class="cls-2" d="M528.47,153.05l-2.08,14.45c-5.15,2.35-12.75,5.51-21.42,6.78-13.73,0-30.47-11.2-30.47-32.16s14.84-31.74,32.72-34.33c9.13,0,15.82,3.79,20.07,6.6v13.64h-5.6l-2.89-8.58c-2.35-2.89-5.79-6.41-13.2-6.41-12.38,0-18.63,9.49-18.63,26.65,0,15,5.89,29.18,20.35,29.18,5.6,0,8.23-2.98,11.03-5.51l4.7-10.3h5.42Z"/><path class="cls-2" d="M551.11,125.97c12.02,0,15.45,3.07,15.45,14.18v22.2c0,3.79,.54,5.33,1.45,6.78h4.43l.45,3.61-13.37,1.27-2.89-7.77-10.57,7.77c-8.04,0-13.73-4.52-13.73-11.83,0-3.52,1.36-6.14,3.52-8.67l20.24-6.6v-7.39c0-5.42-.9-7.95-4.97-7.95-2.26,0-4.79,.72-6.6,1.54l-1.45,7.86h-9.31v-7.59l17.35-7.41Zm4.97,24.73l-11.47,4.7c-1.36,1.45-1.9,3.52-1.9,5.51,0,4.52,2.53,6.14,4.88,6.14s4.16-1.27,5.33-2.08l3.16-2.17v-12.11Z"/><path class="cls-2" d="M590.88,139.97l9.94-13.55h9.02l-2.51,10.57h-6.51c-2.17,.63-5.42,3.34-7.86,6.14l-1.54,1.81v23.02l9.58,.9-.45,3.88-14.09-.27-10.66,.27-.45-3.61,5.87-.99v-34.76l-5.87,.45-.45-3.7,11.29-2.71,4.16-.36,.54,12.92Z"/><path class="cls-2" d="M651.92,149c0,14.09-9.31,22.58-23.04,25.01-11.83,0-20.24-10.38-20.24-22.94,0-14.27,9.31-22.58,23.04-25.11,11.83,0,20.24,10.38,20.24,23.03Zm-20.51,20.23c6.05,0,9.4-7.49,9.4-17.43,0-12.56-5.06-21.04-11.74-21.04-6.14,0-9.4,7.49-9.4,17.43,0,11.74,4.88,21.04,11.74,21.04Z"/><path class="cls-2" d="M663.6,172.48l-10.75,.27-.45-3.61,5.78-.99v-52.38l-5.87,.18-.45-3.7,11.74-2.71,4.97-.36v58.97l6.23,.99-.45,3.61-10.75-.27Z"/><path class="cls-2" d="M690.07,172.48l-10.75,.27-.45-3.61,5.87-.99v-34.85l-5.87,.36-.45-3.61,11.74-2.62,4.97-.36v41.09l6.14,.99-.45,3.61-10.75-.27Zm-4.88-62.34l7.41-.54,2.71,.54,.54,5.51-1.08,4.7-7.32,.54-2.71-.54-.54-5.51,.99-4.7Z"/><path class="cls-2" d="M716.79,172.48l-10.75,.27-.45-3.61,5.87-.99v-34.76l-5.96,.45-.45-3.7,11.74-2.71,4.61-.27,.27,7.5,13.55-8.67c11.11,0,13.73,3.52,13.73,14.36v27.81l6.23,.99-.45,3.61-10.75-.27-9.31,.27-.45-3.61,4.16-.99v-27.9c0-4.25-1.9-6.14-5.42-6.14-2.98,0-5.87,1.9-8.76,3.79l-2.35,1.63v28.62l4.43,.99-.45,3.61-9.03-.27Z"/><path class="cls-2" d="M775.61,125.97c12.02,0,15.45,3.07,15.45,14.18v22.2c0,3.79,.54,5.33,1.45,6.78h4.43l.45,3.61-13.37,1.27-2.89-7.77-10.57,7.77c-8.04,0-13.73-4.52-13.73-11.83,0-3.52,1.36-6.14,3.52-8.67l20.24-6.6v-7.39c0-5.42-.9-7.95-4.97-7.95-2.26,0-4.79,.72-6.6,1.54l-1.45,7.86h-9.31v-7.59l17.35-7.41Zm4.97,24.73l-11.47,4.7c-1.36,1.45-1.9,3.52-1.9,5.51,0,4.52,2.53,6.14,4.88,6.14s4.16-1.27,5.33-2.08l3.16-2.17v-12.11Z"/></g><path class="cls-2" d="M399.38,165.13c-1.9,.89-3.6,1.48-5.71,1.48-3.43,0-4.7-2.62-4.7-5.51v-29.61h10.41v-4.43h-10.5v-11.11h-3.16l-6.96,6.23v4.34h-4.08l-3.34,3.43v1.54h7.24v30.52c0,8.76,3.61,12.02,12.74,12.02l7.47-4.08,.59-4.8Z"/></g></g><g><path class="cls-2" d="M245.81,72.55l.18-1.42,4.54,.11,4.12-.11,.18,1.42-2.95,.46v14.2c0,4.65-1.88,7.77-8.94,9.44-7.45,0-10.08-3.8-10.08-9.44v-14.2s-3.02-.46-3.02-.46l.18-1.42,4.86,.11,5.22-.11,.18,1.42-2.8,.46v14.52c0,4.33,1.85,6.85,5.78,6.85,3.66,0,5.64-2.52,5.64-6.96v-14.41s-3.09-.46-3.09-.46Z"/><path class="cls-2" d="M265.96,94.17l2.84,.46-.14,1.42-3.83-.11-4.19,.11-.18-1.42,3.02-.46v-20.97s-2.91-.64-2.91-.64l.18-1.42,3.12,.11,3.16-.11,11.96,16.25,.85,2.52v-16.89s-2.84-.46-2.84-.46l.14-1.42,3.83,.11,4.19-.11,.18,1.42-3.02,.46v23.07s-2.41,0-2.41,0l-13.24-18.42-.71-2.8v19.31Z"/><path class="cls-2" d="M296.2,95.94l-5.08,.11-.18-1.46,3.02-.46v-21.12s-3.02-.46-3.02-.46l.18-1.42,5.08,.11,5.08-.11,.18,1.42-3.02,.46v21.12s3.02,.46,3.02,.46l-.18,1.46-5.08-.11Z"/><path class="cls-2" d="M318.48,96.58l-8.98-23.6-2.59-.43,.18-1.42,5.5,.11,4.51-.11,.18,1.42-2.84,.46,6.07,16.93,.11,2.13,6.74-19.06-2.95-.46,.18-1.42,4.01,.11,3.69-.11,.18,1.42-2.52,.43-8.66,22.75-2.8,.85Z"/><path class="cls-2" d="M356.03,71.13l.35,6.57h-1.46s-2.06-4.61-2.06-4.61l-8.91-.11v9.16s4.58-.14,4.58-.14l1.42-3.76h1.49s-.35,4.61-.35,4.61l.35,4.9h-1.49s-1.42-3.76-1.42-3.76l-4.58-.14v10.36s9.3-.11,9.3-.11l2.38-4.79h1.6s-1.21,6.74-1.21,6.74l-14.48-.11-4.9,.11-.18-1.42,3.02-.46v-21.15s-3.02-.46-3.02-.46l.18-1.42,4.9,.11,14.48-.11Z"/><path class="cls-2" d="M370.05,84.66v9.51s2.87,.46,2.87,.46l-.18,1.42-4.93-.11-5.08,.11-.18-1.42,3.02-.46v-21.15s-3.02-.46-3.02-.46l.18-1.42,5.08,.11,7.1-.11c4.47-.04,7.98,2.02,7.98,6.18,0,3.94-3.66,5.93-7.52,6.81l3.05,1.6,5.75,8.41,1.81,.53-.14,1.38-3.34-.11-2.66,.11-7.24-11-.43-.39h-2.13Zm0-1.81h2.41c3.27,0,5.54-2.13,5.54-5.29,0-3.19-2.09-4.79-4.79-4.83l-3.16,.25v9.87Z"/><path class="cls-2" d="M393.62,92.14c1.1,1.28,2.91,2.31,4.9,2.31,2.77,0,4.47-1.7,4.47-4.19,0-2.09-1.35-3.44-3.48-4.4l-4.29-1.99c-2.73-1.24-4.76-2.95-4.76-6.07,0-3.62,3.12-6.07,8.8-7.28,2.38,0,5,.78,6.85,2.06v5.11s-2.09,0-2.09,0l-1.03-3.23c-.92-.99-2.13-1.81-4.19-1.81-2.7,0-4.26,1.46-4.26,3.55,0,1.77,1.24,2.91,3.09,3.76l4.33,1.95c3.3,1.56,5.29,3.34,5.25,6.67,0,3.66-2.7,6.57-9.3,8.06-3.09,0-5.47-.96-7.45-2.41l-.78-5.22h2.73s1.21,3.12,1.21,3.12Z"/><path class="cls-2" d="M418.01,95.94l-5.08,.11-.18-1.46,3.02-.46v-21.12s-3.02-.46-3.02-.46l.18-1.42,5.08,.11,5.08-.11,.18,1.42-3.02,.46v21.12s3.02,.46,3.02,.46l-.18,1.46-5.08-.11Z"/><path class="cls-2" d="M445.29,96.05l-6-.11-6.14,.11-.18-1.42,4.08-.46v-21.15s-4.9,.07-4.9,.07l-1.7,4.72h-1.56v-6.67s10.47,.11,10.47,.11l10.33-.11v6.67s-1.6,0-1.6,0l-1.67-4.72-4.9-.07v21.15s3.94,.46,3.94,.46l-.18,1.42Z"/><path class="cls-2" d="M469.8,86.32l.04,7.84,3.98,.46-.18,1.42-6.03-.11-6.18,.11-.18-1.42,4.12-.46v-7.95s-7.84-13.27-7.84-13.27l-2.59-.43,.18-1.38,5.04,.11,4.93-.11,.18,1.38-2.84,.46,5.93,10.01,.18,1.53,6.18-11.53-2.91-.46,.18-1.38,4.08,.11,3.8-.11,.18,1.38-2.59,.39-7.63,13.42Z"/><path class="cls-2" d="M522.74,83.02c0,7.84-3.94,12.03-13.13,13.63-7.42,0-12.35-5.32-12.35-12.49,0-7.84,3.94-12.03,13.13-13.63,7.42,0,12.35,5.32,12.35,12.49Zm-12.24,11.5c5.15,0,7.35-4.51,7.35-10.33,0-5.22-2.27-11.53-8.3-11.53-5.15,0-7.38,4.47-7.38,10.29,0,5.36,2.34,11.57,8.34,11.57Z"/><path class="cls-2" d="M528.06,96.05l-.18-1.42,3.02-.46v-21.15s-3.02-.46-3.02-.46l.18-1.42,4.9,.11,14.48-.11,.35,6.67h-1.46s-2.06-4.72-2.06-4.72l-8.91-.11v9.65s4.58-.14,4.58-.14l1.42-3.73h1.49s-.35,4.61-.35,4.61l.35,4.9h-1.49s-1.42-3.76-1.42-3.76l-4.58-.14v9.8s4.26,.46,4.26,.46l-.18,1.42-6.49-.11-4.9,.11Z"/></g></svg>